# Blender v2.77 (sub 0) OBJ File: ''
# www.blender.org
mtllib treetop.mtl
o Cone.001
v 0.000000 0.000000 -1.000000
v 0.000000 2.000000 0.000000
v 0.382683 0.000000 -0.923880
v 0.707107 0.000000 -0.707107
v 0.923880 0.000000 -0.382683
v 1.000000 0.000000 0.000000
v 0.923880 -0.000000 0.382684
v 0.707107 -0.000000 0.707107
v 0.382683 -0.000000 0.923880
v 0.000000 -0.000000 1.000000
v -0.382683 -0.000000 0.923880
v -0.707107 -0.000000 0.707107
v -0.923880 -0.000000 0.382684
v -1.000000 0.000000 0.000000
v -0.923879 0.000000 -0.382684
v -0.707107 0.000000 -0.707107
v -0.382683 0.000000 -0.923880
v 0.000000 0.000000 0.000000
vt 0.2251 0.5368
vt 0.2251 0.3486
vt 0.2972 0.5225
vt 0.3583 0.4817
vt 0.3991 0.4206
vt 0.4134 0.3486
vt 0.3991 0.2765
vt 0.3583 0.2154
vt 0.2972 0.1746
vt 0.2251 0.1603
vt 0.1531 0.1746
vt 0.0920 0.2154
vt 0.0512 0.2765
vt 0.0369 0.3486
vt 0.0512 0.4206
vt 0.0920 0.4817
vt 0.1531 0.5225
vt 0.2173 0.5666
vt 0.1453 0.5809
vt 0.2173 0.7548
vt 0.0291 0.7548
vt 0.0434 0.8269
vt 0.3913 0.6828
vt 0.3505 0.6217
vt 0.3505 0.8879
vt 0.3913 0.8269
vt 0.0842 0.6217
vt 0.0842 0.8879
vt 0.2894 0.5809
vt 0.4056 0.7548
vt 0.0434 0.6828
vt 0.2173 0.9431
vt 0.2894 0.9287
vt 0.1453 0.9287
vn 0.1752 0.4403 -0.8806
vn 0.4988 0.4403 -0.7465
vn 0.7465 0.4403 -0.4988
vn 0.8806 0.4403 -0.1752
vn 0.8806 0.4403 0.1752
vn 0.7465 0.4403 0.4988
vn 0.4988 0.4403 0.7465
vn 0.1752 0.4403 0.8806
vn -0.1752 0.4403 0.8806
vn -0.4988 0.4403 0.7465
vn -0.7465 0.4403 0.4988
vn -0.8806 0.4403 0.1752
vn -0.8806 0.4403 -0.1752
vn -0.7465 0.4403 -0.4988
vn -0.4988 0.4403 -0.7465
vn -0.1752 0.4403 -0.8806
vn -0.0000 -1.0000 -0.0000
usemtl None
s off
f 1/1/1 2/2/1 3/3/1
f 3/3/2 2/2/2 4/4/2
f 4/4/3 2/2/3 5/5/3
f 5/5/4 2/2/4 6/6/4
f 6/6/5 2/2/5 7/7/5
f 7/7/6 2/2/6 8/8/6
f 8/8/7 2/2/7 9/9/7
f 9/9/8 2/2/8 10/10/8
f 10/10/9 2/2/9 11/11/9
f 11/11/10 2/2/10 12/12/10
f 12/12/11 2/2/11 13/13/11
f 13/13/12 2/2/12 14/14/12
f 14/14/13 2/2/13 15/15/13
f 15/15/14 2/2/14 16/16/14
f 16/16/15 2/2/15 17/17/15
f 17/17/16 2/2/16 1/1/16
f 10/18/17 11/19/17 18/20/17
f 14/21/17 15/22/17 18/20/17
f 7/23/17 8/24/17 18/20/17
f 4/25/17 5/26/17 18/20/17
f 11/19/17 12/27/17 18/20/17
f 15/22/17 16/28/17 18/20/17
f 8/24/17 9/29/17 18/20/17
f 5/26/17 6/30/17 18/20/17
f 12/27/17 13/31/17 18/20/17
f 1/32/17 3/33/17 18/20/17
f 16/28/17 17/34/17 18/20/17
f 9/29/17 10/18/17 18/20/17
f 17/34/17 1/32/17 18/20/17
f 13/31/17 14/21/17 18/20/17
f 6/30/17 7/23/17 18/20/17
f 3/33/17 4/25/17 18/20/17
