# Blender v2.77 (sub 0) OBJ File: 'trunk.blend'
# www.blender.org
mtllib trunk.mtl
o Cylinder
v 0.000000 1.000000 -0.266999
v 0.231228 -1.000000 -0.133500
v 0.000000 -1.000000 -0.266999
v 0.231228 1.000000 -0.133500
v 0.231228 -1.000000 0.133500
v 0.231228 1.000000 0.133500
v 0.000000 -1.000000 0.266999
v 0.000000 1.000000 0.266999
v -0.231228 -1.000000 0.133500
v 0.000000 -1.000000 -0.000000
v -0.231228 1.000000 0.133500
v -0.231228 -1.000000 -0.133500
v -0.231228 1.000000 -0.133500
v 0.000000 1.000000 0.000000
vt 0.6616 0.1028
vt 0.9383 0.6948
vt 0.6616 0.6948
vt 0.6616 0.1028
vt 0.9383 0.6948
vt 0.6616 0.6948
vt 0.6616 0.1028
vt 0.9383 0.6948
vt 0.6616 0.6948
vt 0.6616 0.1028
vt 0.9383 0.6948
vt 0.6616 0.6948
vt 0.7084 0.7575
vt 0.7803 0.7990
vt 0.7084 0.8405
vt 0.6616 0.1028
vt 0.9383 0.6948
vt 0.6616 0.6948
vt 0.6616 0.1028
vt 0.9383 0.6948
vt 0.6616 0.6948
vt 0.7806 0.7990
vt 0.8525 0.8405
vt 0.7806 0.8820
vt 0.9383 0.1028
vt 0.9383 0.1028
vt 0.9383 0.1028
vt 0.9383 0.1028
vt 0.6366 0.7990
vt 0.8525 0.9234
vt 0.9242 0.8820
vt 0.9383 0.1028
vt 0.9383 0.1028
vt 0.8525 0.7575
vt 0.9242 0.7990
vt 0.7803 0.8820
vt 0.7084 0.9234
vt 0.6366 0.8820
vn 0.5000 0.0000 -0.8660
vn 1.0000 -0.0000 0.0000
vn 0.5000 -0.0000 0.8660
vn -0.5000 -0.0000 0.8660
vn 0.0000 -1.0000 0.0000
vn -1.0000 -0.0000 0.0000
vn -0.5000 0.0000 -0.8660
vn 0.0000 1.0000 0.0000
usemtl None
s 1
f 1/1/1 2/2/1 3/3/1
f 4/4/2 5/5/2 2/6/2
f 6/7/3 7/8/3 5/9/3
f 8/10/4 9/11/4 7/12/4
f 3/13/5 2/14/5 10/15/5
f 11/16/6 12/17/6 9/18/6
f 13/19/7 3/20/7 12/21/7
f 4/22/8 14/23/8 6/24/8
f 1/1/1 4/25/1 2/2/1
f 4/4/2 6/26/2 5/5/2
f 6/7/3 8/27/3 7/8/3
f 8/10/4 11/28/4 9/11/4
f 10/15/5 12/29/5 3/13/5
f 8/30/8 14/23/8 11/31/8
f 6/24/8 14/23/8 8/30/8
f 11/16/6 13/32/6 12/17/6
f 13/19/7 1/33/7 3/20/7
f 1/34/8 14/23/8 4/22/8
f 13/35/8 14/23/8 1/34/8
f 13/35/8 11/31/8 14/23/8
f 5/36/5 10/15/5 2/14/5
f 7/37/5 10/15/5 5/36/5
f 12/29/5 10/15/5 9/38/5
f 9/38/5 10/15/5 7/37/5
